<svg width="10" height="10" viewBox="0 0 10 10" fill="none" xmlns="http://www.w3.org/2000/svg">
<path d="M9.16992 4.45996C9.16992 5.05241 9.06738 5.59277 8.8623 6.08105C8.65397 6.56934 8.36751 6.95182 8.00293 7.22852C7.63835 7.50195 7.24447 7.63867 6.82129 7.63867C6.52181 7.63867 6.29069 7.56543 6.12793 7.41895C5.96842 7.26921 5.88867 7.0625 5.88867 6.79883C5.88867 6.73698 5.8903 6.68001 5.89355 6.62793C5.90007 6.57259 5.9082 6.52051 5.91797 6.47168H5.88867C5.72591 6.81348 5.4834 7.09342 5.16113 7.31152C4.84212 7.52962 4.51497 7.63867 4.17969 7.63867C3.66862 7.63867 3.27148 7.47428 2.98828 7.14551C2.70833 6.81348 2.56836 6.35124 2.56836 5.75879C2.56836 5.23145 2.67415 4.7334 2.88574 4.26465C3.09733 3.79915 3.38867 3.43457 3.75977 3.1709C4.13086 2.90397 4.54753 2.77051 5.00977 2.77051C5.64453 2.77051 6.07422 3.05371 6.29883 3.62012H6.32812L6.51855 2.87793H7.28027L6.70898 5.34863C6.58854 5.90202 6.52832 6.29264 6.52832 6.52051C6.52832 6.68327 6.56576 6.79883 6.64062 6.86719C6.71875 6.93555 6.80827 6.96973 6.90918 6.96973C7.1696 6.96973 7.41862 6.85579 7.65625 6.62793C7.89388 6.40332 8.08105 6.10221 8.21777 5.72461C8.35775 5.34375 8.42773 4.92546 8.42773 4.46973C8.42773 3.89681 8.30404 3.39225 8.05664 2.95605C7.80924 2.51986 7.44954 2.18294 6.97754 1.94531C6.50879 1.70768 5.96354 1.58887 5.3418 1.58887C4.56055 1.58887 3.87207 1.75977 3.27637 2.10156C2.68066 2.44336 2.21191 2.93652 1.87012 3.58105C1.53158 4.22559 1.3623 4.94824 1.3623 5.74902C1.3623 6.38053 1.49251 6.93717 1.75293 7.41895C2.01335 7.90072 2.3763 8.26367 2.8418 8.50781C3.31055 8.75521 3.86068 8.87891 4.49219 8.87891C4.9707 8.87891 5.44922 8.81543 5.92773 8.68848C6.40625 8.56152 6.88639 8.37272 7.36816 8.12207L7.6709 8.71777C7.12402 9.02702 6.58854 9.24837 6.06445 9.38184C5.54362 9.5153 5.00814 9.58203 4.45801 9.58203C3.68978 9.58203 3.01432 9.42578 2.43164 9.11328C1.8457 8.80404 1.38835 8.35645 1.05957 7.77051C0.734049 7.18132 0.571289 6.50749 0.571289 5.74902C0.571289 4.8278 0.777995 3.99447 1.19141 3.24902C1.60156 2.50358 2.1696 1.92578 2.89551 1.51562C3.62142 1.10547 4.43359 0.900391 5.33203 0.900391C6.12305 0.900391 6.80827 1.04688 7.3877 1.33984C7.96712 1.63607 8.4082 2.05273 8.71094 2.58984C9.01693 3.12695 9.16992 3.75033 9.16992 4.45996ZM6.01074 4.47949C6.01074 4.17025 5.91309 3.91797 5.71777 3.72266C5.52572 3.52734 5.27669 3.42969 4.9707 3.42969C4.66471 3.42969 4.39128 3.5306 4.15039 3.73242C3.90625 3.9375 3.71582 4.22721 3.5791 4.60156C3.44564 4.97266 3.37891 5.35514 3.37891 5.74902C3.37891 6.12012 3.45703 6.41309 3.61328 6.62793C3.77279 6.84277 4.0153 6.9502 4.34082 6.9502C4.55566 6.9502 4.764 6.88184 4.96582 6.74512C5.1709 6.60514 5.35319 6.40658 5.5127 6.14941C5.62012 5.97689 5.70964 5.78646 5.78125 5.57812C5.85612 5.36654 5.91309 5.16309 5.95215 4.96777C5.99121 4.77246 6.01074 4.6097 6.01074 4.47949Z" fill="#D9D9D9"/>
</svg>
