<svg width="19" height="16" viewBox="0 0 19 16" fill="none" xmlns="http://www.w3.org/2000/svg">
<mask id="path-1-inside-1_83_58" fill="white">
<path fill-rule="evenodd" clip-rule="evenodd" d="M0 8C1.54311 4.46819 5.06727 2 9.16791 2C13.2685 2 16.7927 4.46819 18.3358 8C16.7927 11.5318 13.2685 14 9.16791 14C5.06727 14 1.54311 11.5318 0 8Z"/>
</mask>
<path d="M0 8L-0.916353 7.59963L-1.09128 8L-0.916353 8.40037L0 8ZM18.3358 8L19.2522 8.40037L19.4271 8L19.2522 7.59963L18.3358 8ZM0.916353 8.40037C2.30607 5.21965 5.47889 3 9.16791 3V1C4.65566 1 0.780158 3.71673 -0.916353 7.59963L0.916353 8.40037ZM9.16791 3C12.8569 3 16.0298 5.21966 17.4195 8.40037L19.2522 7.59963C17.5557 3.71673 13.6802 1 9.16791 1V3ZM17.4195 7.59963C16.0298 10.7803 12.8569 13 9.16791 13V15C13.6802 15 17.5557 12.2833 19.2522 8.40037L17.4195 7.59963ZM9.16791 13C5.47889 13 2.30607 10.7803 0.916353 7.59963L-0.916353 8.40037C0.780158 12.2833 4.65566 15 9.16791 15V13Z" fill="#D9D9D9" mask="url(#path-1-inside-1_83_58)"/>
<circle cx="9" cy="8" r="2.5" fill="#231F20" stroke="#D9D9D9"/>
<path d="M15 1L3 15" stroke="#D9D9D9" stroke-width="1.5"/>
</svg>
