<svg width="7" height="10" viewBox="0 0 7 10" fill="none" xmlns="http://www.w3.org/2000/svg">
<path fill-rule="evenodd" clip-rule="evenodd" d="M4.90011 3.89833H1.66C1.62701 3.89833 1.59544 3.89833 1.56454 3.89833V3.25068C1.56454 2.86164 1.5672 2.57442 1.62568 2.2853C1.68206 2.00692 1.7859 1.7661 1.94307 1.55693C2.25904 1.13652 2.75652 0.894361 3.28006 0.894361C3.80369 0.894361 4.30108 1.13652 4.61705 1.55693C4.77432 1.7661 4.87815 2.00692 4.93444 2.2853C4.99301 2.57442 4.99558 2.86164 4.99558 3.25068V3.89833C4.96477 3.89833 4.9332 3.89833 4.90011 3.89833ZM6.56011 5.56632C6.56011 5.34622 6.56049 5.17423 6.55792 5.06214C6.55517 4.93921 6.54832 4.83482 6.53054 4.73423C6.49422 4.52982 6.41054 4.34766 6.26173 4.1981C6.15505 4.09086 6.03125 4.01775 5.8949 3.97126V3.25069C5.8949 2.8143 5.891 2.44246 5.80228 2.04486C5.71642 1.66028 5.55953 1.30851 5.31992 0.997615C4.83689 0.37098 4.08239 0 3.28007 0C2.47774 0 1.72324 0.37098 1.24021 0.997615C1.0006 1.30851 0.843707 1.66028 0.757941 2.04486C0.669132 2.44246 0.665233 2.8143 0.665233 3.25069V3.97126C0.528882 4.01775 0.405081 4.09086 0.298396 4.1981C0.149588 4.34766 0.0659136 4.52982 0.0295912 4.73423C0.0117153 4.83482 0.00496428 4.93921 0.00220682 5.06214C-0.000360468 5.17423 1.98708e-05 5.34622 1.98708e-05 5.56632V7.83907C1.98708e-05 8.05917 -0.000360468 8.23116 0.00220682 8.34325C0.00496428 8.46618 0.0117153 8.57067 0.0295912 8.67116C0.0659136 8.87557 0.149588 9.05783 0.298396 9.20728C0.447109 9.35684 0.62853 9.44079 0.831917 9.47739C0.932041 9.49527 1.03597 9.50211 1.15815 9.50487C1.26988 9.50744 1.44103 9.50715 1.66001 9.50715H4.90012C5.1191 9.50715 5.29035 9.50744 5.40188 9.50487C5.52416 9.50211 5.62809 9.49527 5.72821 9.47739C5.9316 9.44079 6.11302 9.35684 6.26173 9.20728C6.41054 9.05783 6.49422 8.87557 6.53054 8.67116C6.54832 8.57067 6.55517 8.46618 6.55792 8.34325C6.56049 8.23116 6.56011 8.05917 6.56011 7.83907V5.56632Z" fill="#D9D9D9"/>
</svg>
